# Blender v3.2.1 OBJ File: 'arrow.blend'
# www.blender.org
o Cube_Cube.002
v 0.050000 -0.050000 -0.800001
v 0.050000 0.050000 -0.800001
v 0.050000 -0.050000 0.400001
v 0.050000 0.050000 0.400001
v -0.050000 -0.050000 -0.800001
v -0.050000 0.050000 -0.800001
v -0.050000 -0.050000 0.400001
v -0.050000 0.050000 0.400001
v 0.100000 0.000000 -0.700001
v -0.100000 0.000000 -0.700001
v 0.100000 0.000000 -0.400000
v -0.100000 0.000000 -0.400001
v -0.100000 -0.000000 -0.700001
v 0.100000 -0.000000 -0.700001
v -0.100000 0.000000 -0.400001
v 0.100000 0.000000 -0.400000
v 0.050000 -0.050000 0.800001
v 0.050000 0.050000 0.800001
v -0.050000 -0.050000 0.800001
v -0.050000 0.050000 0.800001
v -0.050000 0.050000 0.600001
v -0.050000 -0.050000 0.600001
v 0.050000 0.050000 0.600001
v 0.050000 -0.050000 0.600001
v 0.050000 0.100000 0.400001
v -0.050000 0.100000 0.400001
v -0.050000 0.100000 0.600001
v 0.050000 0.100000 0.600001
v 0.050000 -0.100000 0.400001
v -0.050000 -0.100000 0.400001
v -0.050000 -0.100000 0.600001
v 0.050000 -0.100000 0.600001
v -0.100000 0.050000 0.400001
v -0.100000 -0.050000 0.400001
v -0.100000 0.050000 0.600001
v -0.100000 -0.050000 0.600001
v 0.100000 0.050000 0.400001
v 0.100000 -0.050000 0.400001
v 0.100000 -0.050000 0.600001
v 0.100000 0.050000 0.600001
v 0.100000 0.000000 -0.300000
v -0.100000 0.000000 -0.300001
v -0.100000 0.000000 -0.300001
v 0.100000 0.000000 -0.300000
v -0.200000 0.000000 -0.700001
v -0.200000 0.000000 -0.400001
v -0.200000 -0.000000 -0.700001
v -0.200000 0.000000 -0.400001
v 0.200000 0.000000 -0.700001
v 0.200000 0.000000 -0.400000
v 0.200000 -0.000000 -0.700001
v 0.200000 0.000000 -0.400000
v 0.100000 0.000000 -0.800001
v -0.100000 0.000000 -0.800001
v -0.100000 -0.000000 -0.800001
v 0.100000 -0.000000 -0.800001
v -0.200000 0.000000 -0.800001
v -0.200000 -0.000000 -0.800001
v 0.200000 0.000000 -0.800001
v 0.200000 -0.000000 -0.800001
v 0.000000 0.100000 -0.700001
v 0.000000 -0.100000 -0.700001
v 0.000000 0.100000 -0.400001
v 0.000000 -0.100000 -0.400001
v 0.000000 -0.100000 -0.700001
v 0.000000 0.100000 -0.700001
v 0.000000 -0.100000 -0.400001
v -0.000000 0.100000 -0.400001
v 0.000000 0.100000 -0.300001
v 0.000000 -0.100000 -0.300001
v 0.000000 -0.100000 -0.300001
v -0.000000 0.100000 -0.300001
v 0.000000 -0.200000 -0.700001
v 0.000000 -0.200000 -0.400001
v 0.000000 -0.200000 -0.700001
v 0.000000 -0.200000 -0.400001
v 0.000000 0.200000 -0.700001
v 0.000000 0.200000 -0.400001
v 0.000000 0.200000 -0.700001
v -0.000000 0.200000 -0.400001
v 0.000000 0.100000 -0.800001
v 0.000000 -0.100000 -0.800001
v 0.000000 -0.100000 -0.800001
v 0.000000 0.100000 -0.800001
v 0.000000 -0.200000 -0.800001
v 0.000000 -0.200000 -0.800001
v 0.000000 0.200000 -0.800001
v 0.000000 0.200000 -0.800001
vt 0.437644 -0.000077
vt 0.500144 -0.000077
vt 0.500144 0.749923
vt 0.437644 0.749923
vt 0.125144 0.874923
vt 0.125144 0.749923
vt 0.156394 0.749923
vt 0.156394 0.874923
vt 0.250144 0.749923
vt 0.187644 0.749923
vt 0.187644 -0.000077
vt 0.250144 -0.000077
vt 0.875039 0.812513
vt 0.875039 0.875039
vt 0.812513 0.875039
vt 0.812513 0.812513
vt 0.375144 0.749923
vt 0.312644 0.749923
vt 0.312644 -0.000077
vt 0.375144 -0.000077
vt 0.062644 0.749923
vt 0.062644 -0.000077
vt 0.125144 -0.000077
vt 0.874961 0.625110
vt 0.750039 0.625110
vt 0.750039 0.437726
vt 0.874961 0.437726
vt 0.750039 0.625110
vt 0.874961 0.625110
vt 0.874961 0.437726
vt 0.750039 0.437726
vt 0.687487 0.812487
vt 0.687487 0.875013
vt 0.750013 0.875013
vt 0.750013 0.812487
vt 0.750013 0.812487
vt 0.687487 0.812487
vt 0.687487 0.781225
vt 0.750013 0.781225
vt 0.437644 0.874923
vt 0.500144 0.874923
vt 0.500144 0.999923
vt 0.437644 0.999923
vt 0.687487 0.875013
vt 0.687487 0.812487
vt 0.656225 0.812487
vt 0.656225 0.875013
vt 0.062644 0.874923
vt 0.125144 0.999923
vt 0.062644 0.999923
vt 0.187644 0.874923
vt 0.156394 0.874923
vt 0.156394 0.749923
vt 0.250144 0.874923
vt 0.250144 0.999923
vt 0.187644 0.999923
vt 0.312644 0.874923
vt 0.375144 0.874923
vt 0.375144 0.999923
vt 0.312644 0.999923
vt 0.062644 0.749923
vt 0.125144 0.749923
vt 0.125144 0.874923
vt 0.062644 0.874923
vt 0.531394 0.749923
vt 0.531394 0.874923
vt 0.750013 0.875013
vt 0.687487 0.906275
vt 0.750013 0.906275
vt 0.687487 0.875013
vt 0.750013 0.875013
vt 0.750013 0.906275
vt 0.687487 0.906275
vt 0.312644 0.749923
vt 0.375144 0.749923
vt 0.375144 0.874923
vt 0.312644 0.874923
vt 0.281394 0.749923
vt 0.281394 0.874923
vt 0.406394 0.874923
vt 0.406394 0.749923
vt 0.750013 0.812487
vt 0.750013 0.781225
vt 0.687487 0.781225
vt 0.187644 0.749923
vt 0.250144 0.749923
vt 0.250144 0.874923
vt 0.187644 0.874923
vt 0.781275 0.812487
vt 0.781275 0.875013
vt 0.781275 0.875013
vt 0.781275 0.812487
vt 0.281394 0.874923
vt 0.281394 0.749923
vt 0.437644 0.749923
vt 0.500144 0.749923
vt 0.500144 0.874923
vt 0.437644 0.874923
vt 0.031394 0.874923
vt 0.031394 0.749923
vt 0.406394 0.749923
vt 0.406394 0.874923
vt 0.656225 0.875013
vt 0.656225 0.812487
vt 0.874961 0.375265
vt 0.750039 0.375265
vt 0.750039 0.375265
vt 0.874961 0.375265
vt 0.687577 0.437726
vt 0.687577 0.625110
vt 0.687577 0.625110
vt 0.687577 0.437726
vt 0.937423 0.625110
vt 0.937423 0.437726
vt 0.937423 0.437726
vt 0.937423 0.625110
vt 0.937423 0.687571
vt 0.874961 0.687571
vt 0.687577 0.687571
vt 0.750039 0.687571
vt 0.874961 0.687571
vt 0.937423 0.687571
vt 0.750039 0.687571
vt 0.687577 0.687571
vt 0.750217 0.062331
vt 0.875304 0.062331
vt 0.875304 0.249961
vt 0.750217 0.249961
vt 0.875304 0.062331
vt 0.750217 0.062331
vt 0.750217 0.249961
vt 0.875304 0.249961
vt 0.750217 0.312504
vt 0.875304 0.312504
vt 0.875304 0.312504
vt 0.750217 0.312504
vt 0.937847 0.249961
vt 0.937847 0.062331
vt 0.937847 0.062331
vt 0.937847 0.249961
vt 0.687674 0.062331
vt 0.687674 0.249961
vt 0.687674 0.249961
vt 0.687674 0.062331
vt 0.687674 -0.000212
vt 0.750217 -0.000212
vt 0.937847 -0.000212
vt 0.875304 -0.000212
vt 0.750217 -0.000212
vt 0.687674 -0.000212
vt 0.875304 -0.000212
vt 0.937847 -0.000212
vn 1.0000 0.0000 0.0000
vn 0.0000 1.0000 0.0000
vn -1.0000 0.0000 -0.0000
vn 0.0000 0.0000 -1.0000
vn 0.0000 -1.0000 0.0000
vn 0.0000 0.0000 1.0000
s off
f 1/1/1 2/2/1 4/3/1 3/4/1
f 21/5/2 8/6/2 33/7/2 35/8/2
f 7/9/3 8/10/3 6/11/3 5/12/3
f 5/13/4 6/14/4 2/15/4 1/16/4
f 3/17/5 7/18/5 5/19/5 1/20/5
f 8/6/2 4/21/2 2/22/2 6/23/2
f 9/24/2 10/25/2 12/26/2 11/27/2
f 13/28/5 14/29/5 16/30/5 15/31/5
f 17/32/6 18/33/6 20/34/6 19/35/6
f 7/36/4 3/37/4 29/38/4 30/39/4
f 24/40/1 23/41/1 18/42/1 17/43/1
f 23/44/6 24/45/6 39/46/6 40/47/6
f 23/48/2 21/5/2 20/49/2 18/50/2
f 8/10/3 21/51/3 27/52/3 26/53/3
f 21/51/3 22/54/3 19/55/3 20/56/3
f 22/57/5 24/58/5 17/59/5 19/60/5
f 25/61/2 26/62/2 27/63/2 28/64/2
f 23/41/1 4/3/1 25/65/1 28/66/1
f 21/67/6 23/44/6 28/68/6 27/69/6
f 4/70/4 8/71/4 26/72/4 25/73/4
f 30/74/5 29/75/5 32/76/5 31/77/5
f 22/54/3 7/9/3 30/78/3 31/79/3
f 3/4/1 24/40/1 32/80/1 29/81/1
f 24/45/6 22/82/6 31/83/6 32/84/6
f 33/85/3 34/86/3 36/87/3 35/88/3
f 8/71/4 7/36/4 34/89/4 33/90/4
f 22/82/6 21/67/6 35/91/6 36/92/6
f 7/18/5 22/57/5 36/93/5 34/94/5
f 38/95/1 37/96/1 40/97/1 39/98/1
f 4/21/2 23/48/2 40/99/2 37/100/2
f 24/58/5 3/17/5 38/101/5 39/102/5
f 3/37/4 4/70/4 37/103/4 38/104/4
f 15/31/5 16/30/5 44/105/5 43/106/5
f 11/27/2 12/26/2 42/107/2 41/108/2
f 13/28/5 15/31/5 48/109/5 47/110/5
f 12/26/2 10/25/2 45/111/2 46/112/2
f 16/30/5 14/29/5 51/113/5 52/114/5
f 9/24/2 11/27/2 50/115/2 49/116/2
f 9/24/2 49/116/2 59/117/2 53/118/2
f 13/28/5 47/110/5 58/119/5 55/120/5
f 51/113/5 14/29/5 56/121/5 60/122/5
f 45/111/2 10/25/2 54/123/2 57/124/2
f 61/125/3 62/126/3 64/127/3 63/128/3
f 65/129/1 66/130/1 68/131/1 67/132/1
f 67/132/1 68/131/1 72/133/1 71/134/1
f 63/128/3 64/127/3 70/135/3 69/136/3
f 65/129/1 67/132/1 76/137/1 75/138/1
f 64/127/3 62/126/3 73/139/3 74/140/3
f 68/131/1 66/130/1 79/141/1 80/142/1
f 61/125/3 63/128/3 78/143/3 77/144/3
f 61/125/3 77/144/3 87/145/3 81/146/3
f 65/129/1 75/138/1 86/147/1 83/148/1
f 79/141/1 66/130/1 84/149/1 88/150/1
f 73/139/3 62/126/3 82/151/3 85/152/3
