# Blender v2.83.2 OBJ File: 'Campfire.blend'
# www.blender.org
mtllib campfire.mtl
o Cube_Cube.001
v -0.400000 -0.500000 0.050000
v -0.400000 -0.400000 0.050000
v -0.400000 -0.500000 -0.050000
v -0.400000 -0.400000 -0.050000
v 0.400000 -0.500000 0.050000
v 0.400000 -0.400000 0.050000
v 0.400000 -0.500000 -0.050000
v 0.400000 -0.400000 -0.050000
v -0.188473 -0.500000 0.356340
v -0.188473 -0.400000 0.356340
v -0.270388 -0.500000 0.298982
v -0.270388 -0.400000 0.298982
v 0.270388 -0.500000 -0.298982
v 0.270388 -0.400000 -0.298982
v 0.188473 -0.500000 -0.356340
v 0.188473 -0.400000 -0.356340
v 0.270388 -0.500000 0.298982
v 0.270388 -0.400000 0.298982
v 0.188473 -0.500000 0.356340
v 0.188473 -0.400000 0.356340
v -0.188473 -0.500000 -0.356340
v -0.188473 -0.400000 -0.356340
v -0.270388 -0.500000 -0.298982
v -0.270388 -0.400000 -0.298982
v -0.054086 -0.510000 -0.190116
v -0.054086 -0.410000 -0.190116
v -0.019884 -0.510000 -0.284086
v -0.019884 -0.410000 -0.284086
v 0.039884 -0.510000 -0.155914
v 0.039884 -0.410000 -0.155914
v 0.074086 -0.510000 -0.249884
v 0.074086 -0.410000 -0.249884
v -0.230558 -0.510000 -0.032077
v -0.230558 -0.410000 -0.032077
v -0.247923 -0.510000 -0.130558
v -0.247923 -0.410000 -0.130558
v -0.132077 -0.510000 -0.049442
v -0.132077 -0.410000 -0.049442
v -0.149442 -0.510000 -0.147923
v -0.149442 -0.410000 -0.147923
v -0.236446 -0.510000 0.124184
v -0.236446 -0.410000 0.124184
v -0.194184 -0.510000 0.033554
v -0.194184 -0.410000 0.033554
v -0.145816 -0.510000 0.166446
v -0.145816 -0.410000 0.166446
v -0.103554 -0.510000 0.075816
v -0.103554 -0.410000 0.075816
v -0.050000 -0.510000 0.240000
v -0.050000 -0.410000 0.240000
v -0.050000 -0.510000 0.140000
v -0.050000 -0.410000 0.140000
v 0.050000 -0.510000 0.240000
v 0.050000 -0.410000 0.240000
v 0.050000 -0.510000 0.140000
v 0.050000 -0.410000 0.140000
v 0.118763 -0.510000 0.125355
v 0.118763 -0.410000 0.125355
v 0.144645 -0.510000 0.028763
v 0.144645 -0.410000 0.028763
v 0.215355 -0.510000 0.151237
v 0.215355 -0.410000 0.151237
v 0.241237 -0.510000 0.054645
v 0.241237 -0.410000 0.054645
v 0.118763 -0.510000 -0.054645
v 0.118763 -0.410000 -0.054645
v 0.144645 -0.510000 -0.151237
v 0.144645 -0.410000 -0.151237
v 0.215355 -0.510000 -0.028763
v 0.215355 -0.410000 -0.028763
v 0.241237 -0.510000 -0.125355
v 0.241237 -0.410000 -0.125355
v -0.327661 -0.500000 0.229431
v 0.327661 -0.500000 -0.229431
v -0.327661 0.300000 0.229431
v 0.327661 0.300000 -0.229431
v 0.000000 -0.500000 0.400000
v 0.000000 -0.500000 -0.400000
v -0.000000 0.300000 0.400000
v -0.000000 0.300000 -0.400000
v 0.375877 -0.500000 0.136808
v -0.375877 -0.500000 -0.136808
v 0.375877 0.300000 0.136808
v -0.375877 0.300000 -0.136808
vt 0.750901 0.000901
vt 0.874099 0.000901
vt 0.874099 0.124099
vt 0.750901 0.124099
vt 0.873060 0.001561
vt 0.873060 0.123439
vt 0.001940 0.123439
vt 0.001940 0.001561
vt 0.001063 0.001063
vt 0.123937 0.001063
vt 0.123937 0.123937
vt 0.001063 0.123937
vt 0.873060 0.001561
vt 0.873060 0.123439
vt 0.001940 0.123439
vt 0.001940 0.001561
vt 0.001940 0.001561
vt 0.873060 0.001561
vt 0.873060 0.123439
vt 0.001940 0.123439
vt 0.001940 0.001561
vt 0.873060 0.001561
vt 0.873060 0.123439
vt 0.001940 0.123439
vt 0.750901 0.000901
vt 0.874099 0.000901
vt 0.874099 0.124099
vt 0.750901 0.124099
vt 0.873060 0.001561
vt 0.873060 0.123439
vt 0.001940 0.123439
vt 0.001940 0.001561
vt 0.001063 0.001063
vt 0.123937 0.001063
vt 0.123937 0.123937
vt 0.001063 0.123937
vt 0.873060 0.001561
vt 0.873060 0.123439
vt 0.001940 0.123439
vt 0.001940 0.001561
vt 0.001940 0.001561
vt 0.873060 0.001561
vt 0.873060 0.123439
vt 0.001940 0.123439
vt 0.001940 0.001561
vt 0.873060 0.001561
vt 0.873060 0.123439
vt 0.001940 0.123439
vt 0.750901 0.000901
vt 0.874099 0.000901
vt 0.874099 0.124099
vt 0.750901 0.124099
vt 0.873060 0.001561
vt 0.873060 0.123439
vt 0.001940 0.123439
vt 0.001940 0.001561
vt 0.001063 0.001063
vt 0.123937 0.001063
vt 0.123937 0.123937
vt 0.001063 0.123937
vt 0.873060 0.001561
vt 0.873060 0.123439
vt 0.001940 0.123439
vt 0.001940 0.001561
vt 0.001940 0.001561
vt 0.873060 0.001561
vt 0.873060 0.123439
vt 0.001940 0.123439
vt 0.001940 0.001561
vt 0.873060 0.001561
vt 0.873060 0.123439
vt 0.001940 0.123439
vt 0.876903 0.001903
vt 0.998097 0.001903
vt 0.998097 0.123097
vt 0.876903 0.123097
vt 0.876903 0.001903
vt 0.998097 0.001903
vt 0.998097 0.123097
vt 0.876903 0.123097
vt 0.876903 0.001903
vt 0.998097 0.001903
vt 0.998097 0.123097
vt 0.876903 0.123097
vt 0.876903 0.001903
vt 0.998097 0.001903
vt 0.998097 0.123097
vt 0.876903 0.123097
vt 0.998097 0.001903
vt 0.998097 0.123097
vt 0.876903 0.001903
vt 0.876903 0.123097
vt 0.876903 0.001903
vt 0.998097 0.001903
vt 0.998097 0.123097
vt 0.876903 0.123097
vt 0.876903 0.001903
vt 0.998097 0.001903
vt 0.998097 0.123097
vt 0.876903 0.123097
vt 0.876903 0.001903
vt 0.998097 0.001903
vt 0.998097 0.123097
vt 0.876903 0.123097
vt 0.876903 0.001903
vt 0.998097 0.001903
vt 0.998097 0.123097
vt 0.876903 0.123097
vt 0.998097 0.001903
vt 0.998097 0.123097
vt 0.876903 0.001903
vt 0.876903 0.123097
vt 0.876903 0.001903
vt 0.998097 0.001903
vt 0.998097 0.123097
vt 0.876903 0.123097
vt 0.876903 0.001903
vt 0.998097 0.001903
vt 0.998097 0.123097
vt 0.876903 0.123097
vt 0.876903 0.001903
vt 0.998097 0.001903
vt 0.998097 0.123097
vt 0.876903 0.123097
vt 0.876903 0.001903
vt 0.998097 0.001903
vt 0.998097 0.123097
vt 0.876903 0.123097
vt 0.998097 0.001903
vt 0.998097 0.123097
vt 0.876903 0.001903
vt 0.876903 0.123097
vt 0.876903 0.001903
vt 0.998097 0.001903
vt 0.998097 0.123097
vt 0.876903 0.123097
vt 0.876903 0.001903
vt 0.998097 0.001903
vt 0.998097 0.123097
vt 0.876903 0.123097
vt 0.876903 0.001903
vt 0.998097 0.001903
vt 0.998097 0.123097
vt 0.876903 0.123097
vt 0.876903 0.001903
vt 0.998097 0.001903
vt 0.998097 0.123097
vt 0.876903 0.123097
vt 0.998097 0.001903
vt 0.998097 0.123097
vt 0.876903 0.001903
vt 0.876903 0.123097
vt 0.876903 0.001903
vt 0.998097 0.001903
vt 0.998097 0.123097
vt 0.876903 0.123097
vt 0.876903 0.001903
vt 0.998097 0.001903
vt 0.998097 0.123097
vt 0.876903 0.123097
vt 0.876903 0.001903
vt 0.998097 0.001903
vt 0.998097 0.123097
vt 0.876903 0.123097
vt 0.876903 0.001903
vt 0.998097 0.001903
vt 0.998097 0.123097
vt 0.876903 0.123097
vt 0.998097 0.001903
vt 0.998097 0.123097
vt 0.876903 0.001903
vt 0.876903 0.123097
vt 0.876903 0.001903
vt 0.998097 0.001903
vt 0.998097 0.123097
vt 0.876903 0.123097
vt 0.876903 0.001903
vt 0.998097 0.001903
vt 0.998097 0.123097
vt 0.876903 0.123097
vt 0.876903 0.001903
vt 0.998097 0.001903
vt 0.998097 0.123097
vt 0.876903 0.123097
vt 0.876903 0.001903
vt 0.998097 0.001903
vt 0.998097 0.123097
vt 0.876903 0.123097
vt 0.998097 0.001903
vt 0.998097 0.123097
vt 0.876903 0.001903
vt 0.876903 0.123097
vt 0.001639 0.128304
vt 0.998361 0.128304
vt 0.998361 0.996696
vt 0.001639 0.996696
vt 0.001639 0.128304
vt 0.998361 0.128304
vt 0.998361 0.996696
vt 0.001639 0.996696
vt 0.001639 0.128304
vt 0.998361 0.128304
vt 0.998361 0.996696
vt 0.001639 0.996696
vn -1.0000 0.0000 0.0000
vn 0.0000 0.0000 -1.0000
vn 1.0000 0.0000 0.0000
vn 0.0000 0.0000 1.0000
vn 0.0000 -1.0000 0.0000
vn 0.0000 1.0000 0.0000
vn -0.5736 0.0000 0.8192
vn -0.8192 0.0000 -0.5736
vn 0.5736 0.0000 -0.8192
vn 0.8192 0.0000 0.5736
vn 0.5736 0.0000 0.8192
vn -0.8192 0.0000 0.5736
vn -0.5736 0.0000 -0.8192
vn 0.8192 0.0000 -0.5736
vn -0.9397 0.0000 -0.3420
vn 0.3420 0.0000 -0.9397
vn 0.9397 0.0000 0.3420
vn -0.3420 0.0000 0.9397
vn -0.9848 0.0000 0.1736
vn -0.1736 0.0000 -0.9848
vn 0.9848 0.0000 -0.1736
vn 0.1736 0.0000 0.9848
vn -0.9063 0.0000 -0.4226
vn 0.4226 0.0000 -0.9063
vn 0.9063 0.0000 0.4226
vn -0.4226 0.0000 0.9063
vn -0.9659 0.0000 -0.2588
vn 0.2588 0.0000 -0.9659
vn 0.9659 0.0000 0.2588
vn -0.2588 0.0000 0.9659
usemtl Material
s off
f 1/1/1 2/2/1 4/3/1 3/4/1
f 3/5/2 4/6/2 8/7/2 7/8/2
f 7/9/3 8/10/3 6/11/3 5/12/3
f 5/13/4 6/14/4 2/15/4 1/16/4
f 3/17/5 7/18/5 5/19/5 1/20/5
f 8/21/6 4/22/6 2/23/6 6/24/6
f 9/25/7 10/26/7 12/27/7 11/28/7
f 11/29/8 12/30/8 16/31/8 15/32/8
f 15/33/9 16/34/9 14/35/9 13/36/9
f 13/37/10 14/38/10 10/39/10 9/40/10
f 11/41/5 15/42/5 13/43/5 9/44/5
f 16/45/6 12/46/6 10/47/6 14/48/6
f 17/49/11 18/50/11 20/51/11 19/52/11
f 19/53/12 20/54/12 24/55/12 23/56/12
f 23/57/13 24/58/13 22/59/13 21/60/13
f 21/61/14 22/62/14 18/63/14 17/64/14
f 19/65/5 23/66/5 21/67/5 17/68/5
f 24/69/6 20/70/6 18/71/6 22/72/6
f 25/73/15 26/74/15 28/75/15 27/76/15
f 27/77/16 28/78/16 32/79/16 31/80/16
f 31/81/17 32/82/17 30/83/17 29/84/17
f 29/85/18 30/86/18 26/87/18 25/88/18
f 27/77/5 31/89/5 29/90/5 25/88/5
f 32/91/6 28/78/6 26/87/6 30/92/6
f 33/93/19 34/94/19 36/95/19 35/96/19
f 35/97/20 36/98/20 40/99/20 39/100/20
f 39/101/21 40/102/21 38/103/21 37/104/21
f 37/105/22 38/106/22 34/107/22 33/108/22
f 35/97/5 39/109/5 37/110/5 33/108/5
f 40/111/6 36/98/6 34/107/6 38/112/6
f 41/113/23 42/114/23 44/115/23 43/116/23
f 43/117/24 44/118/24 48/119/24 47/120/24
f 47/121/25 48/122/25 46/123/25 45/124/25
f 45/125/26 46/126/26 42/127/26 41/128/26
f 43/117/5 47/129/5 45/130/5 41/128/5
f 48/131/6 44/118/6 42/127/6 46/132/6
f 49/133/1 50/134/1 52/135/1 51/136/1
f 51/137/2 52/138/2 56/139/2 55/140/2
f 55/141/3 56/142/3 54/143/3 53/144/3
f 53/145/4 54/146/4 50/147/4 49/148/4
f 51/137/5 55/149/5 53/150/5 49/148/5
f 56/151/6 52/138/6 50/147/6 54/152/6
f 57/153/27 58/154/27 60/155/27 59/156/27
f 59/157/28 60/158/28 64/159/28 63/160/28
f 63/161/29 64/162/29 62/163/29 61/164/29
f 61/165/30 62/166/30 58/167/30 57/168/30
f 59/157/5 63/169/5 61/170/5 57/168/5
f 64/171/6 60/158/6 58/167/6 62/172/6
f 65/173/27 66/174/27 68/175/27 67/176/27
f 67/177/28 68/178/28 72/179/28 71/180/28
f 71/181/29 72/182/29 70/183/29 69/184/29
f 69/185/30 70/186/30 66/187/30 65/188/30
f 67/177/5 71/189/5 69/190/5 65/188/5
f 72/191/6 68/178/6 66/187/6 70/192/6
f 73/193/11 74/194/11 76/195/11 75/196/11
f 77/197/3 78/198/3 80/199/3 79/200/3
f 81/201/16 82/202/16 84/203/16 83/204/16
