# Blender v2.92.0 OBJ File: 'template.blend'
# www.blender.org
mtllib cave_crystal.mtl
o Crystal_Cube.002
v -0.250000 -0.500000 -0.125000
v -0.312500 -0.125000 -0.187500
v -0.250000 -0.500000 -0.250000
v -0.312500 -0.125000 -0.312500
v -0.125000 -0.500000 -0.125000
v -0.187500 -0.125000 -0.187500
v -0.125000 -0.500000 -0.250000
v -0.187500 -0.125000 -0.312500
v 0.125000 -0.500000 -0.062500
v 0.187500 -0.187500 -0.125000
v 0.125000 -0.500000 -0.187500
v 0.187500 -0.187500 -0.250000
v 0.250000 -0.500000 -0.062500
v 0.312500 -0.187500 -0.125000
v 0.250000 -0.500000 -0.187500
v 0.312500 -0.187500 -0.250000
v -0.187500 -0.500000 0.250000
v -0.250000 -0.250000 0.312500
v -0.187500 -0.500000 0.125000
v -0.250000 -0.250000 0.187500
v -0.062500 -0.500000 0.250000
v -0.125000 -0.250000 0.312500
v -0.062500 -0.500000 0.125000
v -0.125000 -0.250000 0.187500
v 0.000000 -0.500000 0.187500
v 0.062500 0.000000 0.250000
v 0.000000 -0.500000 0.062500
v 0.062500 0.000000 0.125000
v 0.125000 -0.500000 0.187500
v 0.187500 0.000000 0.250000
v 0.125000 -0.500000 0.062500
v 0.187500 0.000000 0.125000
vt 0.375000 -0.000000
vt 0.375000 0.375000
vt 0.250000 0.375000
vt 0.250000 0.000000
vt 0.750000 0.000000
vt 0.750000 0.312500
vt 0.625000 0.312500
vt 0.625000 0.000000
vt 0.750000 -0.000000
vt 0.750000 0.375000
vt 0.625000 0.375000
vt 0.625000 0.000000
vt 0.375000 -0.000000
vt 0.375000 0.375000
vt 0.250000 0.375000
vt 0.250000 0.000000
vt 0.250000 0.250000
vt 0.375000 0.250000
vt 0.375000 0.375000
vt 0.250000 0.375000
vt 0.375000 0.750000
vt 0.250000 0.750000
vt 0.250000 0.625000
vt 0.375000 0.625000
vt 0.312500 0.000000
vt 0.437500 0.000000
vt 0.437500 0.312500
vt 0.312500 0.312500
vt 0.375000 -0.000000
vt 0.375000 0.312500
vt 0.250000 0.312500
vt 0.250000 0.000000
vt 0.687500 -0.000000
vt 0.687500 0.312500
vt 0.562500 0.312500
vt 0.562500 0.000000
vt 0.750000 -0.000000
vt 0.750000 0.312500
vt 0.625000 0.312500
vt 0.625000 0.000000
vt 0.625000 0.312500
vt 0.750000 0.312500
vt 0.750000 0.437500
vt 0.625000 0.437500
vt 0.750000 0.687500
vt 0.625000 0.687500
vt 0.625000 0.562500
vt 0.750000 0.562500
vt 0.750000 -0.000000
vt 0.750000 0.250000
vt 0.625000 0.250000
vt 0.625000 0.000000
vt 0.687500 -0.000000
vt 0.687500 0.250000
vt 0.562500 0.250000
vt 0.562500 0.000000
vt 0.312500 0.000000
vt 0.312500 0.250000
vt 0.187500 0.250000
vt 0.187500 0.000000
vt 0.437500 -0.000000
vt 0.437500 0.250000
vt 0.312500 0.250000
vt 0.312500 0.000000
vt 0.312500 0.625000
vt 0.437500 0.625000
vt 0.437500 0.750000
vt 0.312500 0.750000
vt 0.500000 0.375000
vt 0.375000 0.375000
vt 0.375000 0.250000
vt 0.500000 0.250000
vt 0.687500 -0.000000
vt 0.687500 0.500000
vt 0.562500 0.500000
vt 0.562500 0.000000
vt 0.500000 -0.000000
vt 0.500000 0.500000
vt 0.375000 0.500000
vt 0.375000 0.000000
vt 0.437500 -0.000000
vt 0.437500 0.500000
vt 0.312500 0.500000
vt 0.312500 0.000000
vt 0.625000 -0.000000
vt 0.625000 0.500000
vt 0.500000 0.500000
vt 0.500000 0.000000
vt 0.500000 0.562500
vt 0.625000 0.562500
vt 0.625000 0.687500
vt 0.500000 0.687500
vt 0.625000 0.437500
vt 0.500000 0.437500
vt 0.500000 0.312500
vt 0.625000 0.312500
vn -0.9864 -0.1644 0.0000
vn 0.0000 -0.1644 -0.9864
vn 0.9864 0.1644 0.0000
vn 0.0000 0.1644 0.9864
vn 0.0000 -1.0000 0.0000
vn 0.0000 1.0000 0.0000
vn -0.9806 0.1961 0.0000
vn 0.0000 -0.1961 -0.9806
vn 0.9806 -0.1961 0.0000
vn 0.0000 0.1961 0.9806
vn -0.9701 -0.2425 0.0000
vn 0.0000 0.2425 -0.9701
vn 0.9701 0.2425 0.0000
vn 0.0000 -0.2425 0.9701
vn -0.9923 0.1240 0.0000
vn 0.0000 0.1240 -0.9923
vn 0.9923 -0.1240 0.0000
vn 0.0000 -0.1240 0.9923
usemtl Default_OBJ
s off
f 1/1/1 2/2/1 4/3/1 3/4/1
f 3/5/2 4/6/2 8/7/2 7/8/2
f 7/9/3 8/10/3 6/11/3 5/12/3
f 5/13/4 6/14/4 2/15/4 1/16/4
f 3/17/5 7/18/5 5/19/5 1/20/5
f 8/21/6 4/22/6 2/23/6 6/24/6
f 9/25/7 10/26/7 12/27/7 11/28/7
f 11/29/8 12/30/8 16/31/8 15/32/8
f 15/33/9 16/34/9 14/35/9 13/36/9
f 13/37/10 14/38/10 10/39/10 9/40/10
f 11/41/5 15/42/5 13/43/5 9/44/5
f 16/45/6 12/46/6 10/47/6 14/48/6
f 17/49/11 18/50/11 20/51/11 19/52/11
f 19/53/12 20/54/12 24/55/12 23/56/12
f 23/57/13 24/58/13 22/59/13 21/60/13
f 21/61/14 22/62/14 18/63/14 17/64/14
f 19/65/5 23/66/5 21/67/5 17/68/5
f 24/69/6 20/70/6 18/71/6 22/72/6
f 25/73/15 26/74/15 28/75/15 27/76/15
f 27/77/16 28/78/16 32/79/16 31/80/16
f 31/81/17 32/82/17 30/83/17 29/84/17
f 29/85/18 30/86/18 26/87/18 25/88/18
f 27/89/5 31/90/5 29/91/5 25/92/5
f 32/93/6 28/94/6 26/95/6 30/96/6
