# Blender v3.2.2 OBJ File: ''
# www.blender.org
o Door_right_open_Cube.006
v -0.500000 -0.500000 -0.500000
v -0.500000 1.500000 -0.500000
v -0.437500 1.500000 -0.500000
v -0.437500 -0.500000 -0.500000
v -0.437500 1.500000 0.500000
v -0.437500 -0.500000 0.500000
v -0.500000 1.500000 0.500000
v -0.500000 -0.500000 0.500000
vt 1.000017 0.000018
vt 1.000017 0.999982
vt 0.968768 0.999982
vt 0.968768 0.000018
vt 0.000071 0.000071
vt 0.000071 0.999929
vt 0.500000 0.999929
vt 0.500000 0.000071
vt 0.500017 0.000018
vt 0.500017 0.999982
vt 0.468768 0.999982
vt 0.468768 0.000018
vt 0.500071 0.000071
vt 0.500071 0.999929
vt 1.000000 0.999929
vt 1.000000 0.000071
vt 1.000011 0.031249
vt 0.500036 0.031249
vt 0.500036 0.000001
vt 0.000036 0.999999
vt 0.000036 0.968751
vt 0.500011 0.968751
vn 0.0000 0.0000 -1.0000
vn 1.0000 -0.0000 0.0000
vn 0.0000 -0.0000 1.0000
vn -1.0000 0.0000 0.0000
vn 0.0000 -1.0000 -0.0000
vn 0.0000 1.0000 0.0000
s 1
f 1/1/1 2/2/1 3/3/1 4/4/1
f 4/5/2 3/6/2 5/7/2 6/8/2
f 6/9/3 5/10/3 7/11/3 8/12/3
f 8/13/4 7/14/4 2/15/4 1/16/4
f 4/17/5 6/18/5 8/19/5 1/1/5
f 5/10/6 3/20/6 2/21/6 7/22/6
