# Blender v3.2.2 OBJ File: ''
# www.blender.org
mtllib door_right.mtl
o Door_right_Cube.005
v -0.500000 -0.500000 -0.437500
v -0.500000 1.500000 -0.437500
v -0.500000 -0.500000 -0.500000
v -0.500000 1.500000 -0.500000
v 0.500000 -0.500000 -0.437500
v 0.500000 1.500000 -0.437500
v 0.500000 -0.500000 -0.500000
v 0.500000 1.500000 -0.500000
vt 0.468768 0.999982
vt 0.468768 0.000018
vt 0.500017 0.000018
vt 0.500017 0.999982
vt 0.000071 0.000071
vt 0.000071 0.999929
vt 0.500000 0.999929
vt 0.500000 0.000071
vt 0.968768 0.999982
vt 0.968768 0.000018
vt 1.000017 0.000018
vt 1.000017 0.999982
vt 0.500071 0.000071
vt 0.500071 0.999929
vt 1.000000 0.999929
vt 1.000000 0.000071
vt 1.000011 0.031249
vt 0.500036 0.031249
vt 0.500036 0.000001
vt 1.000011 0.000001
vt 0.000036 0.968751
vt 0.500011 0.968751
vt 0.500011 0.999999
vt 0.000036 0.999999
vn -1.0000 0.0000 0.0000
vn 0.0000 0.0000 -1.0000
vn 1.0000 0.0000 0.0000
vn 0.0000 0.0000 1.0000
vn 0.0000 -1.0000 0.0000
vn 0.0000 1.0000 0.0000
usemtl Material
s off
f 1/1/1 2/2/1 4/3/1 3/4/1
f 3/5/2 4/6/2 8/7/2 7/8/2
f 7/9/3 8/10/3 6/11/3 5/12/3
f 5/13/4 6/14/4 2/15/4 1/16/4
f 3/17/5 7/18/5 5/19/5 1/20/5
f 8/21/6 4/22/6 2/23/6 6/24/6
