# Blender v2.90.0 OBJ File: ''
# www.blender.org
mtllib torch_ceiling.mtl
o Torch_Ceiling_Cube.004
v 0.062500 0.500000 0.062500
v 0.062500 0.125000 0.062500
v 0.062500 0.500000 -0.062500
v 0.062500 0.125000 -0.062500
v -0.062500 0.500000 0.062500
v -0.062500 0.125000 0.062500
v -0.062500 0.500000 -0.062500
v -0.062500 0.125000 -0.062500
v 0.125000 -0.125000 0.125000
v 0.125000 -0.125000 -0.125000
v -0.125000 -0.125000 0.125000
v -0.125000 -0.125000 -0.125000
v -0.125000 0.125000 -0.125000
v -0.125000 0.125000 0.125000
v 0.125000 0.125000 -0.125000
v 0.125000 0.125000 0.125000
v 0.062500 -0.125000 0.062500
v 0.062500 -0.125000 -0.062500
v -0.062500 -0.125000 0.062500
v -0.062500 -0.125000 -0.062500
v 0.062500 -0.187500 0.062500
v 0.062500 -0.187500 -0.062500
v -0.062500 -0.187500 0.062500
v -0.062500 -0.187500 -0.062500
v 0.187500 0.125000 0.156250
v 0.187500 -0.250000 0.156250
v 0.156250 0.125000 -0.187500
v 0.156250 -0.250000 -0.187500
v -0.156250 0.125000 0.187500
v -0.156250 -0.250000 0.187500
v -0.187500 0.125000 -0.156250
v -0.187500 -0.250000 -0.156250
v -0.176776 0.437500 0.176777
v -0.176777 -0.562500 0.176777
v 0.176777 0.437500 -0.176777
v 0.176777 -0.562500 -0.176777
v -0.176777 0.437500 -0.176776
v -0.176777 -0.562500 -0.176777
v 0.176777 0.437500 0.176777
v 0.176777 -0.562500 0.176776
v -0.156250 0.125000 -0.187500
v -0.156250 -0.250000 -0.187500
v 0.156250 0.125000 0.187500
v 0.156250 -0.250000 0.187500
v -0.187500 0.125000 0.156250
v -0.187500 -0.250000 0.156250
v 0.187500 0.125000 -0.156250
v 0.187500 -0.250000 -0.156250
v -0.205867 -0.214187 0.205867
v -0.171399 -0.062500 0.171399
v -0.500000 -0.500000 -0.000000
v -0.500000 -0.349574 -0.000000
v -0.053788 -0.428093 0.447820
v 0.001730 -0.280408 0.391897
v -0.392418 -0.280408 0.001108
v -0.448013 -0.428093 0.056955
v -0.000000 -0.500000 0.500000
v -0.000000 -0.349574 0.500000
v -0.205867 -0.214187 -0.205867
v -0.171399 -0.062500 -0.171399
v 0.000000 -0.500000 -0.500000
v 0.000000 -0.349573 -0.500000
v -0.447820 -0.428093 -0.053788
v -0.391897 -0.280408 0.001729
v -0.001109 -0.280408 -0.392418
v -0.056955 -0.428093 -0.448013
v -0.500000 -0.500000 -0.000000
v -0.500000 -0.349574 -0.000000
v 0.205867 -0.214188 -0.205867
v 0.171399 -0.062500 -0.171399
v 0.500000 -0.500000 0.000000
v 0.500000 -0.349574 -0.000000
v 0.053788 -0.428093 -0.447820
v -0.001730 -0.280409 -0.391897
v 0.392418 -0.280409 -0.001109
v 0.448013 -0.428093 -0.056955
v 0.000000 -0.500000 -0.500000
v 0.000000 -0.349574 -0.500000
v 0.206488 -0.214188 0.205345
v 0.172020 -0.062500 0.170877
v 0.000621 -0.500000 0.499478
v 0.000621 -0.349574 0.499478
v 0.448441 -0.428093 0.053266
v 0.392518 -0.280409 -0.002251
v 0.001730 -0.280408 0.391897
v 0.057576 -0.428093 0.447491
v 0.500621 -0.500000 -0.000522
v 0.500621 -0.349574 -0.000522
vt 0.467291 0.158575
vt 0.467291 0.342051
vt 0.407709 0.342051
vt 0.407709 0.158575
vt 0.341824 0.158575
vt 0.341824 0.342051
vt 0.283176 0.342051
vt 0.283176 0.158575
vt 0.216872 0.158575
vt 0.216872 0.342051
vt 0.158128 0.342051
vt 0.158128 0.158575
vt 0.092044 0.158575
vt 0.092044 0.342051
vt 0.032956 0.342051
vt 0.032956 0.158575
vt 0.033248 0.001998
vt 0.091752 0.001998
vt 0.091752 0.060502
vt 0.033248 0.060502
vt 0.407520 0.344934
vt 0.467480 0.344934
vt 0.497461 0.373816
vt 0.377539 0.373816
vt 0.251632 0.439252
vt 0.373368 0.439252
vt 0.342934 0.466998
vt 0.282066 0.466998
vt 0.032223 0.344934
vt 0.092777 0.344934
vt 0.123054 0.373816
vt 0.001946 0.373816
vt 0.251632 0.345816
vt 0.373368 0.345816
vt 0.373368 0.466684
vt 0.251632 0.466684
vt 0.157313 0.344934
vt 0.217687 0.344934
vt 0.247875 0.373816
vt 0.127125 0.373816
vt 0.377539 0.345816
vt 0.497461 0.345816
vt 0.497461 0.466684
vt 0.377539 0.466684
vt 0.282066 0.344934
vt 0.342934 0.344934
vt 0.373368 0.373816
vt 0.251632 0.373816
vt 0.127125 0.345816
vt 0.247875 0.345816
vt 0.247875 0.466684
vt 0.127125 0.466684
vt 0.001946 0.345816
vt 0.123054 0.345816
vt 0.123054 0.466684
vt 0.001946 0.466684
vt 0.032760 0.469961
vt 0.092240 0.469961
vt 0.092240 0.498789
vt 0.032760 0.498789
vt 0.001946 0.439252
vt 0.123054 0.439252
vt 0.092777 0.466998
vt 0.032223 0.466998
vt 0.377539 0.439252
vt 0.497461 0.439252
vt 0.467480 0.466998
vt 0.407520 0.466998
vt 0.127125 0.439252
vt 0.247875 0.439252
vt 0.217687 0.466998
vt 0.157313 0.466998
vt 0.217000 0.060750
vt 0.158000 0.060750
vt 0.158000 0.001750
vt 0.217000 0.001750
vt 0.282630 0.469961
vt 0.342370 0.469961
vt 0.342370 0.498789
vt 0.282630 0.498789
vt 0.407872 0.469961
vt 0.467128 0.469961
vt 0.467128 0.498789
vt 0.407872 0.498789
vt 0.158071 0.469961
vt 0.216929 0.469961
vt 0.216929 0.498789
vt 0.158071 0.498789
vt 0.216378 0.627995
vt 0.216378 0.809505
vt 0.189872 0.809505
vt 0.189872 0.627995
vt 0.029575 0.627995
vt 0.029575 0.809505
vt 0.001675 0.809505
vt 0.001675 0.627995
vt 0.216378 0.814674
vt 0.216378 0.997826
vt 0.189872 0.997826
vt 0.189872 0.814674
vt 0.029575 0.814674
vt 0.029575 0.997826
vt 0.001675 0.997826
vt 0.001675 0.814674
vt 0.997555 0.002483
vt 0.997555 0.997517
vt 0.502445 0.997517
vt 0.502445 0.002483
vt 0.997555 0.002483
vt 0.997555 0.997517
vt 0.502445 0.997517
vt 0.502445 0.002483
vt 0.184288 0.627995
vt 0.184288 0.809505
vt 0.034462 0.809505
vt 0.034462 0.627995
vt 0.184288 0.814674
vt 0.184288 0.997826
vt 0.034462 0.997826
vt 0.034462 0.814674
vt 0.372389 0.814674
vt 0.372389 0.997826
vt 0.221361 0.997826
vt 0.221361 0.814674
vt 0.372389 0.627995
vt 0.372389 0.809505
vt 0.221361 0.809505
vt 0.221361 0.627995
vt 0.250000 0.621360
vt 0.125000 0.621360
vt 0.250000 0.503640
vt 0.375000 0.503640
vt 0.378245 0.750000
vt 0.496755 0.625000
vt 0.496755 0.750000
vt 0.378245 0.875000
vt 0.378245 0.621360
vt 0.003428 0.621360
vt 0.128428 0.503640
vt 0.496755 0.503640
vt 0.496755 0.872301
vt 0.378245 0.997301
vt 0.250000 0.621360
vt 0.125000 0.621360
vt 0.250000 0.503640
vt 0.375000 0.503640
vt 0.378245 0.750000
vt 0.496755 0.625000
vt 0.496755 0.750000
vt 0.378245 0.875000
vt 0.378245 0.621360
vt 0.003428 0.621360
vt 0.128428 0.503640
vt 0.496755 0.503640
vt 0.496755 0.872301
vt 0.378245 0.997301
vt 0.250000 0.621360
vt 0.125000 0.621360
vt 0.250000 0.503640
vt 0.375000 0.503640
vt 0.378245 0.750000
vt 0.496755 0.625000
vt 0.496755 0.750000
vt 0.378245 0.875000
vt 0.378245 0.621360
vt 0.003428 0.621360
vt 0.128428 0.503640
vt 0.496755 0.503640
vt 0.496755 0.872301
vt 0.378245 0.997301
vt 0.250000 0.621360
vt 0.125000 0.621360
vt 0.250000 0.503640
vt 0.375000 0.503640
vt 0.378245 0.750000
vt 0.496755 0.625000
vt 0.496755 0.750000
vt 0.378245 0.875000
vt 0.378245 0.621360
vt 0.003428 0.621360
vt 0.128428 0.503640
vt 0.496755 0.503640
vt 0.496755 0.872301
vt 0.378245 0.997301
vn 1.0000 -0.0000 0.0000
vn 0.0000 0.0000 -1.0000
vn -1.0000 0.0000 0.0000
vn 0.0000 -0.0000 1.0000
vn 0.0000 1.0000 0.0000
vn -0.0000 -1.0000 -0.0000
vn 0.7071 0.0000 -0.7071
vn -0.7071 0.0000 -0.7071
vn -0.7071 -0.0000 0.7071
vn 0.7071 -0.0000 0.7071
vn -0.8362 0.2475 0.4894
vn -0.5185 0.2499 0.8178
vn -0.5433 0.3881 0.7444
vn -0.7403 0.3883 0.5489
vn -0.4894 0.2475 -0.8362
vn -0.8178 0.2499 -0.5185
vn -0.7444 0.3881 -0.5433
vn -0.5489 0.3883 -0.7403
vn 0.8362 0.2475 -0.4894
vn 0.5185 0.2499 -0.8178
vn 0.5433 0.3881 -0.7444
vn 0.7403 0.3883 -0.5489
vn 0.4894 0.2475 0.8362
vn 0.8178 0.2499 0.5185
vn 0.7444 0.3881 0.5433
vn 0.5489 0.3883 0.7403
usemtl Material.008
s off
f 1/1/1 2/2/1 4/3/1 3/4/1
f 3/5/2 4/6/2 8/7/2 7/8/2
f 7/9/3 8/10/3 6/11/3 5/12/3
f 5/13/4 6/14/4 2/15/4 1/16/4
f 3/17/5 7/18/5 5/19/5 1/20/5
f 4/21/5 2/22/5 16/23/5 15/24/5
f 12/25/6 10/26/6 18/27/6 20/28/6
f 2/29/5 6/30/5 14/31/5 16/32/5
f 13/33/2 15/34/2 10/35/2 12/36/2
f 6/37/5 8/38/5 13/39/5 14/40/5
f 15/41/1 16/42/1 9/43/1 10/44/1
f 8/45/5 4/46/5 15/47/5 13/48/5
f 14/49/3 13/50/3 12/51/3 11/52/3
f 16/53/4 14/54/4 11/55/4 9/56/4
f 17/57/4 19/58/4 23/59/4 21/60/4
f 9/61/6 11/62/6 19/63/6 17/64/6
f 10/65/6 9/66/6 17/67/6 18/68/6
f 11/69/6 12/70/6 20/71/6 19/72/6
f 24/73/6 22/74/6 21/75/6 23/76/6
f 20/77/2 18/78/2 22/79/2 24/80/2
f 18/81/1 17/82/1 21/83/1 22/84/1
f 19/85/3 20/86/3 24/87/3 23/88/3
f 47/89/7 48/90/7 28/91/7 27/92/7
f 41/93/8 42/94/8 32/95/8 31/96/8
f 45/97/9 46/98/9 30/99/9 29/100/9
f 43/101/10 44/102/10 26/103/10 25/104/10
f 33/105/10 34/106/10 36/107/10 35/108/10
f 37/109/9 38/110/9 40/111/9 39/112/9
f 27/113/2 28/114/2 42/115/2 41/116/2
f 29/117/4 30/118/4 44/119/4 43/120/4
f 31/121/3 32/122/3 46/123/3 45/124/3
f 25/125/1 26/126/1 48/127/1 47/128/1
f 53/129/11 57/130/11 58/131/11 54/132/11
f 56/133/12 55/134/12 52/135/12 51/136/12
f 49/137/13 53/138/13 54/139/13 50/140/13
f 49/137/14 50/140/14 55/141/14 56/142/14
f 63/143/15 67/144/15 68/145/15 64/146/15
f 66/147/16 65/148/16 62/149/16 61/150/16
f 59/151/17 63/152/17 64/153/17 60/154/17
f 59/151/18 60/154/18 65/155/18 66/156/18
f 73/157/19 77/158/19 78/159/19 74/160/19
f 76/161/20 75/162/20 72/163/20 71/164/20
f 69/165/21 73/166/21 74/167/21 70/168/21
f 69/165/22 70/168/22 75/169/22 76/170/22
f 83/171/23 87/172/23 88/173/23 84/174/23
f 86/175/24 85/176/24 82/177/24 81/178/24
f 79/179/25 83/180/25 84/181/25 80/182/25
f 79/179/26 80/182/26 85/183/26 86/184/26
