# Blender v3.2.2 OBJ File: ''
# www.blender.org
o Trapdoor_top_Cube.012
v -0.500000 0.375000 0.500000
v -0.500000 0.500000 0.500000
v -0.500000 0.500000 -0.500000
v -0.500000 0.375000 -0.500000
v 0.500000 0.500000 -0.500000
v 0.500000 0.375000 -0.500000
v 0.500000 0.500000 0.500000
v 0.500000 0.375000 0.500000
v -0.500000 0.437500 -0.500000
v -0.500000 0.437500 0.500000
v 0.500000 0.437500 0.500000
v 0.500000 0.437500 -0.500000
vt 0.999982 1.000013
vt 0.937504 0.999996
vt 0.937504 0.000066
vt 0.999982 0.000049
vt 0.999965 0.062527
vt 0.000035 0.062527
vt 0.000018 0.000049
vt 0.062496 0.000066
vt 0.062496 0.999996
vt 0.000018 1.000013
vt 0.000035 0.937535
vt 0.999965 0.937535
vt 0.000100 0.000100
vt 0.999900 0.000100
vt 0.999900 0.999900
vt 0.000100 0.999900
vt 0.000100 0.000100
vt 0.999900 0.000100
vt 0.999900 0.999900
vt 0.000100 0.999900
vt 0.000035 1.000027
vt 0.000017 0.937514
vt 0.999982 0.937513
vt 0.999965 1.000027
vt 0.937505 0.000066
vt 1.000018 0.000049
vt 1.000018 1.000013
vt 0.937504 0.999996
vt 0.000035 0.062549
vt 0.000018 0.000035
vt 0.999965 0.062548
vt 0.062496 0.999996
vt -0.000018 1.000013
vt 0.062496 0.000066
vn -1.0000 -0.0000 0.0000
vn 0.0000 0.0000 -1.0000
vn 1.0000 0.0000 0.0000
vn 0.0000 0.0000 1.0000
vn 0.0000 -1.0000 -0.0000
vn 0.0000 1.0000 0.0000
s 1
f 10/1/1 2/2/1 3/3/1 9/4/1
f 9/4/2 3/5/2 5/6/2 12/7/2
f 12/7/3 5/8/3 7/9/3 11/10/3
f 11/10/4 7/11/4 2/12/4 10/1/4
f 4/13/5 6/14/5 8/15/5 1/16/5
f 5/17/6 3/18/6 2/19/6 7/20/6
f 8/21/4 11/22/4 10/23/4 1/24/4
f 6/25/3 12/26/3 11/27/3 8/28/3
f 4/29/2 9/30/2 12/26/2 6/31/2
f 1/32/1 10/33/1 9/30/1 4/34/1
