# Blender v2.82 (sub 7) OBJ File: ''
# www.blender.org
mtllib flow.mtl
o Cube.001_Cube.002
v -0.125000 -0.062500 0.500000
v -0.125000 0.062500 0.500000
v -0.125000 -0.062500 0.062500
v -0.125000 0.062500 -0.062500
v 0.125000 -0.062500 0.500000
v 0.125000 0.062500 0.500000
v 0.125000 -0.062500 0.062500
v 0.125000 0.062500 -0.062500
v -0.125000 -1.000000 0.062500
v -0.125000 -1.000000 -0.062500
v 0.125000 -1.000000 0.062500
v 0.125000 -1.000000 -0.062500
v -0.125000 -0.500000 0.062500
v -0.125000 -0.500000 -0.062500
v 0.125000 -0.500000 -0.062500
v 0.125000 -0.500000 0.062500
vt 1.000000 0.437500
vt 1.000000 0.562500
vt 0.437500 0.562500
vt 0.562500 0.437500
vt 0.625000 0.437500
vt 0.625000 0.562500
vt 0.375000 0.562500
vt 0.375000 0.437500
vt 0.375000 0.562500
vt 0.625000 0.562500
vt 0.625000 1.000000
vt 0.375000 1.000000
vt 0.625000 0.562500
vt 0.375000 0.562500
vt 0.375000 0.000000
vt 0.625000 0.000000
vt 0.562500 -0.000000
vt 0.437500 0.000000
vt 0.625000 0.000000
vt 0.625000 0.562500
vt 0.375000 0.562500
vt 0.375000 0.000000
vt 0.562500 0.000000
vt 0.562500 0.562500
vt 0.437500 0.437500
vt 0.437500 0.000000
vt 0.625000 -0.000000
vt 0.625000 0.437500
vt 0.375000 0.437500
vt 0.375000 0.000000
vt 0.375000 0.437500
vt 0.625000 0.437500
vt 0.625000 0.562500
vt 0.375000 0.562500
vt 0.625000 0.500000
vt 0.625000 1.000000
vt 0.375000 1.000000
vt 0.375000 0.500000
vt 0.562500 0.500000
vt 0.562500 1.000000
vt 0.437500 1.000000
vt 0.437500 0.500000
vt 0.625000 0.500000
vt 0.625000 1.000000
vt 0.375000 1.000000
vt 0.375000 0.500000
vt 0.437500 1.000000
vt 0.437500 0.500000
vt 0.562500 0.500000
vt 0.562500 1.000000
vt 0.000000 0.562500
vt 0.000000 0.437500
vn -1.0000 0.0000 0.0000
vn 0.0000 0.0000 1.0000
vn 0.0000 -1.0000 0.0000
vn 0.0000 1.0000 0.0000
vn 0.0000 0.0000 -1.0000
vn 1.0000 0.0000 0.0000
usemtl Default_OBJ
s off
f 1/1/1 2/2/1 4/3/1 3/4/1
f 5/5/2 6/6/2 2/7/2 1/8/2
f 3/9/3 7/10/3 5/11/3 1/12/3
f 8/13/4 4/14/4 2/15/4 6/16/4
f 13/17/1 3/4/1 4/3/1 14/18/1
f 14/19/5 4/20/5 8/21/5 15/22/5
f 15/23/6 8/24/6 7/25/6 16/26/6
f 16/27/2 7/28/2 3/29/2 13/30/2
f 10/31/3 12/32/3 11/33/3 9/34/3
f 11/35/2 16/36/2 13/37/2 9/38/2
f 12/39/6 15/40/6 16/41/6 11/42/6
f 10/43/5 14/44/5 15/45/5 12/46/5
f 9/47/1 13/48/1 14/49/1 10/50/1
f 7/25/6 8/24/6 6/51/6 5/52/6
